<svg width="167" height="34" viewBox="0 0 167 34" fill="none" xmlns="http://www.w3.org/2000/svg">
	<path d="M37.0742 0.0185547L27.0702 20.5202V7.92862L20.708 15.0933V33.5533H27.4311L44.2768 0.0185547H37.0742Z" fill="#C80935"/>
	<path d="M18.0449 15.7297L27.0708 7.93359H20.3952L18.0449 15.7297Z" fill="#C80935"/>
	<path d="M8.62483 11.2334C2.24835 11.2334 0.0785433 13.4174 0.0785433 13.4174V18.6117C9.92577 12.4394 12.6701 19.5091 12.6701 19.5091C12.6701 19.5091 13.406 21.1376 12.6701 22.6C12.6701 22.6 13.2541 19.2432 8.8195 19.3334C7.77922 19.3866 6.75745 19.6296 5.80456 20.0503C3.85401 20.7902 2.21314 22.1715 1.15157 23.9674C0.686236 24.8227 0.351748 25.7429 0.159257 26.6974C-0.0501451 27.5606 -0.0530857 28.461 0.150676 29.3256C0.354438 30.1901 0.759161 30.9944 1.332 31.6733C2.02749 32.4326 2.92515 32.9778 3.91962 33.2448C8.77202 34.6692 16.0221 31.056 17.6886 23.8867C19.3552 16.7173 15.0013 11.2334 8.62483 11.2334V11.2334ZM7.41411 28.7296C3.99084 30.2394 3.64899 22.3056 12.0956 23.7964C12.0956 23.7964 10.8326 27.2292 7.41411 28.7296Z" fill="#C40935"/>
	<path d="M45.6828 33.5535C52.0593 33.5535 54.2291 31.3647 54.2291 31.3647V26.1704C44.3771 32.3428 41.6376 25.2731 41.6376 25.2683C41.4274 24.7802 41.319 24.2543 41.319 23.7229C41.319 23.1914 41.4274 22.6655 41.6376 22.1774C41.6376 22.1774 41.0536 25.5437 45.4881 25.4488C46.5268 25.3949 47.5469 25.152 48.4983 24.7318C50.4502 23.9917 52.0915 22.6084 53.1513 20.81C53.6215 19.9588 53.9608 19.0417 54.1579 18.0894C54.3701 17.2216 54.3731 16.3158 54.1668 15.4466C53.9604 14.5774 53.5505 13.7697 52.9709 13.0899C52.2761 12.3297 51.3782 11.7844 50.3833 11.5183C45.5309 10.0939 38.2808 13.7071 36.6142 20.8765C34.9477 28.0459 39.3016 33.5345 45.6733 33.5345L45.6828 33.5535ZM46.8888 16.0336C50.3073 14.5285 50.6492 22.4575 42.2026 20.9667C42.2026 20.9667 43.4703 17.5339 46.8888 16.0336Z" fill="#C80935"/>
	<path d="M158.057 33.5535C164.433 33.5535 166.603 31.3647 166.603 31.3647V26.1704C156.746 32.3428 154.012 25.2731 154.007 25.2683C153.798 24.7799 153.69 24.2541 153.69 23.7229C153.69 23.1916 153.798 22.6659 154.007 22.1774C154.007 22.1774 153.423 25.5437 157.857 25.4488C158.896 25.3961 159.917 25.1531 160.868 24.7318C162.821 23.993 164.465 22.6095 165.525 20.81C165.996 19.9588 166.335 19.0417 166.532 18.0894C166.743 17.2216 166.745 16.3161 166.539 15.447C166.333 14.578 165.924 13.7703 165.345 13.0899C164.65 12.3297 163.752 11.7844 162.757 11.5183C157.9 10.0939 150.655 13.7071 148.988 20.8765C147.322 28.0459 151.676 33.5345 158.052 33.5345L158.057 33.5535ZM159.268 16.0336C162.681 14.5285 163.028 22.4575 154.581 20.9667C154.581 20.9667 155.844 17.5339 159.268 16.0336Z" fill="#C80935"/>
	<path d="M20.7129 21.1184V33.5533L27.0704 20.525V13.2559L20.7129 21.1184Z" fill="url(#paint0_linear_32541_33969)"/>
	<path d="M61.6921 33.0695C58.8212 31.6641 57.3857 28.9736 57.3857 24.998C57.3931 22.8136 57.9101 20.6612 58.8956 18.7117C59.8744 16.5933 61.3719 14.7561 63.2494 13.3703C64.8553 12.1229 66.8191 11.4239 68.852 11.3762C69.9185 11.3683 70.971 11.6192 71.9192 12.1073C74.7933 13.4842 76.2303 16.1605 76.2303 20.1361C76.2141 22.3216 75.6907 24.4735 74.7015 26.4224C73.7243 28.5418 72.2265 30.3793 70.3476 31.7638C68.7455 33.0114 66.7846 33.7106 64.7545 33.7579C63.6898 33.7675 62.6371 33.5319 61.6779 33.0695H61.6921ZM68.8758 16.333C68.1731 16.333 67.3944 16.7682 66.5398 17.6387C65.5941 18.6642 64.8514 19.8596 64.351 21.1617C63.7464 22.5682 63.4238 24.0797 63.4014 25.6105C63.4014 27.6299 63.9806 28.6381 65.1391 28.6349C65.8466 28.6349 66.6205 28.2076 67.4846 27.353C68.4466 26.3212 69.201 25.1138 69.7066 23.7968C70.3072 22.414 70.6298 20.9265 70.6562 19.4192C70.6562 17.3712 70.0738 16.3472 68.909 16.3472" fill="#C80935"/>
	<path d="M125.357 11.286L119.532 33.6013H113.018L118.858 11.286H125.357ZM123.852 7.66804C122.886 7.72125 121.93 7.45787 121.127 6.91786C120.788 6.7162 120.507 6.43085 120.31 6.08915C120.112 5.74745 120.007 5.36087 120.002 4.96646C120.014 4.5612 120.122 4.16459 120.317 3.80952C120.513 3.45445 120.791 3.15117 121.127 2.92485C121.912 2.33167 122.868 2.00854 123.852 2.00375C124.817 1.94735 125.775 2.20378 126.582 2.73493C126.922 2.93635 127.204 3.22154 127.402 3.5632C127.6 3.90485 127.707 4.29156 127.712 4.68633C127.701 5.0929 127.593 5.49089 127.396 5.84694C127.2 6.20298 126.921 6.50672 126.582 6.73269C125.794 7.32242 124.837 7.64361 123.852 7.64905" fill="#C80935"/>
	<path d="M131.354 33.568L134.958 20.0316C135.226 19.5122 135.592 19.0495 136.036 18.6689C136.511 18.2606 136.985 17.8665 137.46 17.4914C137.957 17.0279 138.597 16.7466 139.274 16.6938C139.551 16.6924 139.818 16.794 140.024 16.9787C140.252 17.0897 140.444 17.2634 140.577 17.4796C140.71 17.6957 140.778 17.9452 140.774 18.1989C140.772 18.36 140.747 18.52 140.698 18.6737L136.796 33.568H143.267L147.213 18.6642C147.312 18.2202 147.36 17.7661 147.355 17.311C147.355 14.6363 146.07 12.7229 143.5 11.5708C142.995 11.4351 142.474 11.3712 141.952 11.3808C140.14 11.4244 138.372 11.9434 136.824 12.8859L137.18 11.3808H130.728L124.888 33.568H131.354Z" fill="#C80935"/>
	<path d="M86.7716 20.0317C87.0397 19.5123 87.4057 19.0496 87.8493 18.6691C88.3241 18.2607 88.7989 17.8714 89.2737 17.4916C89.7747 17.0257 90.4194 16.7444 91.1017 16.6939C91.3799 16.6923 91.6488 16.7938 91.8566 16.9788C92.0847 17.0898 92.2764 17.2636 92.4093 17.4797C92.5422 17.6958 92.6107 17.9453 92.6068 18.199C92.6054 18.3606 92.5782 18.5209 92.5261 18.6738L88.628 33.5728H95.0994L99.045 18.6691C99.1471 18.2254 99.195 17.7711 99.1874 17.3159C99.1874 14.6412 97.9023 12.7278 95.3321 11.5756C94.8276 11.44 94.3066 11.3761 93.7843 11.3857C91.9739 11.4281 90.2068 11.9472 88.6612 12.8908L89.0126 11.3857H82.5316L76.7012 33.5728H83.1679L86.7716 20.0317Z" fill="#C80935"/>
	<path d="M110.43 28.0556C109.932 28.2777 109.401 28.4172 108.858 28.4686C108.795 28.4736 108.731 28.4736 108.668 28.4686C108.279 28.3537 107.928 28.1374 107.65 27.8421C107.373 27.5468 107.178 27.183 107.087 26.7879C106.527 24.7273 107.871 21.7171 108.417 19.666L110.501 11.8698C111.693 7.43053 112.111 5.31769 113.302 0.878369C113.364 0.581073 113.443 0.28775 113.54 0H107.367C106.356 3.79835 106.114 5.29395 105.093 9.10655C104.305 12.0661 103.514 15.0256 102.719 17.9852C101.864 21.1853 100.772 24.4044 100.478 27.7137C100.331 29.3897 100.602 30.8236 101.751 32.1008C102.3 32.7 102.969 33.1783 103.714 33.5053C104.458 33.8322 105.263 34.0007 106.076 34C107.042 33.9674 108 33.8078 108.925 33.5252L110.43 28.0556Z" fill="#C80935"/>
	<defs>
	<linearGradient id="paint0_linear_32541_33969" x1="22.4032" y1="20.7813" x2="27.0989" y2="29.0617" gradientUnits="userSpaceOnUse">
	<stop stop-color="#C40935"/>
	<stop offset="0.04" stop-color="#BF0933"/>
	<stop offset="0.27" stop-color="#A40B2B"/>
	<stop offset="0.51" stop-color="#900C25"/>
	<stop offset="0.75" stop-color="#850D21"/>
	<stop offset="1" stop-color="#810D20"/>
	</linearGradient>
	</defs>
	</svg>